# xmcd CD database file
#
# Track frame offsets:
#	150
#	11777
#	25232
#	40882
#	56567
#	67160
#	81787
#	100440
#	113532
#	128222
#	141242
#	156830
#	172800
#	187322
#	199630
#	213242
#	228120
#	244415
#
# Disc length: 3401 seconds
#
# Revision: 0
# Processed by: cddbd v1.4PL0 Copyright (c) Steve Scherf et al.
# Submitted via: CDex 1.50Beta7
#
DISCID=fd0d4712
DTITLE=Kikki Danielsson - Country Classics Disc 2 - I Nashville
DYEAR=1995
DGENRE=Country
TTITLE0=Midnight Sunshine
TTITLE1=Don't Slam The Door
TTITLE2=Fallin' In Love, Fallin' In Apart
TTITLE3=Get To The Church
TTITLE4=If I Ever Fall In Love Again
TTITLE5=Everyday People
TTITLE6=Just Like A Woman
TTITLE7=Totally In Love With You
TTITLE8=Somebody Else Will
TTITLE9=Undercover Lovers
TTITLE10=Texas (When I Die)
TTITLE11=Waltz In Love Tonight
TTITLE12=There's A Guy Works Down The Chip Chop Swears He's Elvis
TTITLE13=The Star
TTITLE14=Some Old California Memory
TTITLE15=Babe In Arms
TTITLE16=Come On Over
TTITLE17=Wasn't That Love
EXTD=YEAR: 1995
EXTT0=
EXTT1=
EXTT2=
EXTT3=
EXTT4=
EXTT5=
EXTT6=
EXTT7=
EXTT8=
EXTT9=
EXTT10=
EXTT11=
EXTT12=
EXTT13=
EXTT14=
EXTT15=
EXTT16=
EXTT17=
PLAYORDER=
